<svg width="10" height="10" viewBox="0 0 10 10" fill="none" xmlns="http://www.w3.org/2000/svg">
<path d="M6.9455 6.61719L5.258 5.63281V3.35938C5.258 3.14844 5.09393 3.00781 4.883 3.00781H4.85956C4.64862 3.00781 4.508 3.14844 4.508 3.35938V5.72656C4.508 5.89062 4.60175 6.05469 4.74237 6.14844L6.5705 7.25C6.73456 7.34375 6.96894 7.29688 7.06269 7.13281C7.15644 6.94531 7.10956 6.73438 6.9455 6.61719ZM9.59394 1.50781L8.04706 0.21875C7.83612 0.0546875 7.53144 0.078125 7.34394 0.289062C7.17987 0.5 7.20331 0.804688 7.41425 0.992188L8.93769 2.28125C9.14862 2.44531 9.47675 2.42188 9.64081 2.21094C9.82831 2 9.80487 1.69531 9.59394 1.50781ZM1.03925 2.28125L2.58612 0.992188C2.79706 0.804688 2.8205 0.5 2.65643 0.289062C2.46893 0.078125 2.16425 0.0546875 1.95331 0.21875L0.406435 1.50781C0.195497 1.69531 0.17206 2 0.35956 2.21094C0.523622 2.42188 0.851747 2.44531 1.03925 2.28125ZM5.00018 0.992188C2.51581 0.992188 0.500185 3.00781 0.500185 5.49219C0.500185 7.97656 2.51581 9.99219 5.00018 9.99219C7.48456 9.99219 9.50019 7.97656 9.50019 5.49219C9.50019 3.00781 7.48456 0.992188 5.00018 0.992188ZM5.00018 9.00781C3.07831 9.00781 1.508 7.4375 1.508 5.49219C1.508 3.57031 3.07831 2 5.00018 2C6.92206 2 8.49237 3.57031 8.49237 5.49219C8.49237 7.4375 6.92206 9.00781 5.00018 9.00781Z" fill="#991B1B"/>
</svg>
