<svg width="13" height="13" viewBox="0 0 13 13" fill="none" xmlns="http://www.w3.org/2000/svg">
<path d="M1.92578 2.92578H3.07422V4.67578H8.92578V2.92578H10.0742V5.82422H11.25V2.92578C11.25 2.26953 10.7305 1.75 10.0742 1.75H7.64062C7.39453 1.06641 6.76562 0.574219 6 0.574219C5.23438 0.574219 4.60547 1.06641 4.35938 1.75H1.92578C1.26953 1.75 0.75 2.26953 0.75 2.92578V11.0742C0.75 11.7305 1.26953 12.25 1.92578 12.25H5.42578V11.0742H1.92578V2.92578ZM6 1.75C6.32812 1.75 6.57422 2.02344 6.57422 2.32422C6.57422 2.65234 6.32812 2.92578 6 2.92578C5.67188 2.92578 5.42578 2.65234 5.42578 2.32422C5.42578 2.02344 5.67188 1.75 6 1.75ZM11.25 6.69922L8.05078 9.92578L6.30078 8.17578L5.42578 9.05078L8.05078 11.6758L12.125 7.57422L11.25 6.69922Z" fill="#6B7280"/>
</svg>
