<svg width="14" height="14" viewBox="0 0 14 14" fill="none" xmlns="http://www.w3.org/2000/svg">
<path d="M1.75 2.32422C1.75 2.02344 2.02344 1.75 2.32422 1.75H3.5V0.574219H2.32422C1.36719 0.574219 0.574219 1.36719 0.574219 2.32422V3.5H1.75V2.32422ZM1.75 11.6758V10.5H0.574219V11.6758C0.574219 12.6328 1.36719 13.4258 2.32422 13.4258H3.5V12.25H2.32422C2.02344 12.25 1.75 11.9766 1.75 11.6758ZM11.6758 0.574219H10.5V1.75H11.6758C11.9766 1.75 12.25 2.02344 12.25 2.32422V3.5H13.4258V2.32422C13.4258 1.36719 12.6328 0.574219 11.6758 0.574219ZM12.25 11.6758C12.25 11.9766 11.9766 12.25 11.6758 12.25H10.5V13.4258H11.6758C12.6328 13.4258 13.4258 12.6328 13.4258 11.6758V10.5H12.25V11.6758ZM11.0742 8.66797V5.33203C11.0742 4.89453 10.8555 4.51172 10.5 4.32031L7.57422 2.625C7.41016 2.54297 7.19141 2.48828 7 2.48828C6.80859 2.48828 6.58984 2.54297 6.42578 2.625L3.5 4.32031C3.14453 4.51172 2.92578 4.89453 2.92578 5.33203V8.66797C2.92578 9.10547 3.14453 9.48828 3.5 9.67969L6.42578 11.375C6.58984 11.457 6.80859 11.5117 7 11.5117C7.19141 11.5117 7.41016 11.457 7.57422 11.375L10.5 9.67969C10.8555 9.48828 11.0742 9.10547 11.0742 8.66797ZM6.42578 10.0078L4.07422 8.66797V5.96094L6.42578 7.32812V10.0078ZM7 6.31641L4.70312 4.97656L7 3.63672L9.29688 4.97656L7 6.31641ZM9.92578 8.66797L7.57422 10.0078V7.32812L9.92578 5.96094V8.66797Z" fill="#6B7280"/>
</svg>
